<?xml version="1.0" standalone="no"?><!DOCTYPE svg PUBLIC "-//W3C//DTD SVG 1.1//EN" "http://www.w3.org/Graphics/SVG/1.1/DTD/svg11.dtd"><svg t="1769353635338" class="icon" viewBox="150 200 720 520"  version="1.1" xmlns="http://www.w3.org/2000/svg" p-id="1638" xmlns:xlink="http://www.w3.org/1999/xlink" width="200" height="200"><path d="M178.76 614.46l63.6-211.08c2.1-6.93 9.42-10.84 16.35-8.75l196.96 59.32 30.55-101.57c0.27-0.81 0.63-1.59 1.07-2.32 0.63-2.86 1.34-5.72 2.23-8.57 18.7-62.11 84.21-97.31 146.32-78.61 62.11 18.7 97.31 84.21 78.61 146.32-0.89 2.86-1.79 5.63-2.86 8.4-0.02 0.85-0.17 1.69-0.44 2.5l-47.61 158.29-37.25 123.71c-17.86 59.23-80.93 93.17-140.15 75.3l-262.26-78.96c-35.55-10.86-55.69-48.35-45.12-83.98z" fill="#ECEBE0" p-id="1639"></path><path d="M218.34 605.97l63.51-211.17c2.1-6.93 9.42-10.84 16.35-8.75l196.96 59.31 30.55-101.57c0.26-0.81 0.62-1.59 1.07-2.32 0.63-2.86 1.34-5.72 2.23-8.58 18.7-62.11 84.21-97.31 146.32-78.61s97.31 84.21 78.61 146.32c-0.89 2.86-1.79 5.63-2.86 8.4-0.02 0.85-0.17 1.7-0.45 2.5l-47.61 158.28-37.25 123.72c-17.86 59.22-80.93 93.17-140.15 75.3l-262.26-78.96c-35.38-10.62-55.65-48.41-45.02-83.87z" fill="#FCFCFC" p-id="1640"></path><path d="M558.05 786.15c55.15-0.15 103.76-36.23 119.88-88.97l84.86-282c0.32-1.05 0.56-2.13 0.72-3.22 0.89-2.5 1.79-5.09 2.59-7.68 20.64-68.6-18.4-141.23-87-161.86s-141.23 18.4-161.86 87.01c-0.82 2.58-1.51 5.21-2.05 7.86-0.48 1.01-0.87 2.05-1.16 3.13l-26.98 89.59-185-55.65c-13.54-4.06-27.81 3.62-31.89 17.15l-63.51 211.17c-12.63 42.24 11.24 86.75 53.42 99.6l262.26 78.97c11.63 3.18 23.64 4.83 35.72 4.9zM738.67 408.2L653.9 689.85c-16.09 52.76-71.75 82.64-124.61 66.9l-262.27-78.96c-28.91-8.85-45.3-39.34-36.71-68.33l63.51-211.17c0.03-0.16 0.13-0.29 0.27-0.36 0.14-0.05 0.29-0.08 0.45-0.09l208.94 62.89 34.03-113.18 0.98-1.52 0.45-1.97c0.53-2.59 1.25-5.18 1.96-7.68 16.72-55.5 75.28-86.94 130.78-70.21s86.94 75.28 70.21 130.78c-0.8 2.5-1.6 5.09-2.59 7.5l-0.72 1.88 0.09 1.87z" fill="#34362F" p-id="1641"></path><path d="M170.82 288.59c-34.84 115.68 30.37 237.61 145.6 272.27s236.9-30.99 271.73-146.67l-417.33-125.6z" fill="#C99946" p-id="1642"></path><path d="M697.76 359.96c0 13.12-10.64 23.76-23.76 23.76-13.12 0-23.76-10.64-23.76-23.76 0-13.12 10.64-23.76 23.76-23.76 4.17 0 8.27 1.1 11.88 3.18a23.773 23.773 0 0 1 11.88 20.58z" fill="#C05934" p-id="1643"></path><path d="M821.83 642.42V380.33c0-6.32-5.12-11.43-11.43-11.43-6.32 0-11.43 5.12-11.43 11.43v262.09c0 6.32 5.12 11.43 11.43 11.43s11.43-5.12 11.43-11.43z" fill="#57897B" p-id="1644"></path><path d="M863.19 556.39c0 8.39-6.8 15.19-15.18 15.19s-15.19-6.8-15.19-15.18c0-8.39 6.8-15.19 15.18-15.19 8.39 0 15.19 6.8 15.19 15.18zM863.19 605.08c0 8.39-6.8 15.18-15.19 15.18s-15.18-6.8-15.18-15.19c0-8.38 6.8-15.18 15.18-15.18 8.39 0 15.19 6.8 15.19 15.19zM863.19 653.85c0 8.39-6.8 15.19-15.18 15.19-8.39 0-15.19-6.8-15.19-15.18 0-8.39 6.8-15.19 15.18-15.19 8.39 0 15.19 6.79 15.19 15.18z" fill="#98C8BB" p-id="1645"></path><path d="M825.67 676.72c0 8.39-6.8 15.18-15.19 15.18s-15.18-6.8-15.18-15.19 6.8-15.18 15.19-15.18c8.38 0.01 15.18 6.8 15.18 15.19zM787.98 486.36c0 8.39-6.8 15.19-15.18 15.19-8.39 0-15.19-6.8-15.19-15.18s6.8-15.19 15.18-15.19c8.39 0 15.19 6.8 15.19 15.18zM787.98 535.13c0 8.39-6.8 15.19-15.18 15.19-8.39 0-15.19-6.8-15.19-15.18 0-8.39 6.8-15.19 15.18-15.19 8.39 0 15.19 6.8 15.19 15.18zM787.98 583.91c0 8.39-6.8 15.19-15.18 15.19-8.39 0-15.19-6.8-15.19-15.18 0-8.39 6.8-15.19 15.18-15.19 8.39-0.01 15.19 6.79 15.19 15.18z" fill="#98C8BB" p-id="1646"></path><path d="M787.98 632.68c0 8.39-6.8 15.19-15.18 15.19-8.39 0-15.19-6.8-15.19-15.18 0-8.39 6.8-15.19 15.18-15.19 8.39 0 15.19 6.79 15.19 15.18zM863.19 507.62c0 8.39-6.8 15.19-15.18 15.19-8.39 0-15.19-6.8-15.19-15.18 0-8.39 6.8-15.19 15.18-15.19 8.39 0 15.19 6.79 15.19 15.18z" fill="#98C8BB" p-id="1647"></path><path d="M847.91 454.29c1.36-21.83-12.48-41.73-33.41-48.06-6.61-1.97-21.08-6.43-30.99-9.56l-10.54 35.11 74.94 22.51z" fill="#34362F" p-id="1648"></path><path d="M201.9 288.59c-34.84 115.68 30.37 237.61 145.6 272.27s236.9-30.99 271.73-146.67L201.9 288.59z" fill="#57897B" p-id="1649"></path><path d="M410.39 582.75c101.87-0.39 191.51-67.33 220.82-164.9 0.98-3.19 0.63-6.64-0.98-9.56a12.514 12.514 0 0 0-7.41-6.08L205.47 276.62c-6.61-1.97-13.57 1.79-15.54 8.4a230.228 230.228 0 0 0 17.51 176.06c29.12 54.4 77.54 94.15 136.49 111.84a232.34 232.34 0 0 0 66.46 9.83z m192.95-160.26C564.43 529.07 446.5 583.92 339.92 545.02c-97.97-35.76-153.59-139.27-129.36-240.7l392.78 118.17z" fill="#34362F" p-id="1650"></path><path d="M338.93 455.37h88.97c6.91-0.06 12.46-5.71 12.39-12.62-0.06-6.82-5.57-12.33-12.39-12.39h-88.97c-6.91 0.06-12.46 5.71-12.4 12.62 0.07 6.81 5.58 12.33 12.4 12.39z" fill="#34362F" p-id="1651"></path></svg>